<?xml version="1.0" encoding="utf-8"?>
<!-- Generator: Adobe Illustrator 24.1.0, SVG Export Plug-In . SVG Version: 6.00 Build 0)  -->
<svg version="1.1" id="LOGOS" xmlns="http://www.w3.org/2000/svg" xmlns:xlink="http://www.w3.org/1999/xlink" x="0px" y="0px"
	 viewBox="0 0 143.8 204" style="enable-background:new 0 0 143.8 204;" xml:space="preserve">
<style type="text/css">
	.st0{fill:#FFFFFF;}
	.st1{opacity:0.7;fill:#FFFFFF;enable-background:new    ;}
</style>
<g>
	<path class="st0" d="M6.4,177.4v26.1H0v-34.4h8.7l13.1,26.1v-26.1h6.4v34.4h-8.7L6.4,177.4z"/>
	<path class="st0" d="M43.6,204c-8.6,0-10.9-4.8-10.9-9.9v-6.4c0-5.2,2.3-9.9,10.9-9.9s10.9,4.7,10.9,9.9v6.4
		C54.5,199.2,52.2,204,43.6,204z M43.6,183.2c-3.3,0-4.6,1.5-4.6,4.3v6.8c0,2.8,1.3,4.3,4.6,4.3s4.7-1.5,4.7-4.3v-6.8
		C48.2,184.7,46.9,183.2,43.6,183.2L43.6,183.2z"/>
	<path class="st0" d="M73.7,203.5v-17.6c0-1.4-0.6-2-2-2c-2.3,0.3-4.5,1-6.6,2.1v17.4h-6.3v-25.2h4.8l0.6,2.1
		c3.1-1.6,6.6-2.5,10.1-2.6c2-0.2,3.9,0.9,4.8,2.7c3.1-1.6,6.6-2.5,10.1-2.7c4.2,0,5.7,2.9,5.7,7.4v18.2h-6.3v-17.5c0-1.4-0.6-2-2-2
		c-2.3,0.2-4.5,1-6.6,2.1v17.4L73.7,203.5z"/>
	<path class="st0" d="M118.6,203.5h-5.2l-0.5-1.7c-2.2,1.4-4.8,2.2-7.5,2.2c-4.6,0-6.6-3.1-6.6-7.5c0-5.1,2.2-7.1,7.3-7.1h6v-2.6
		c0-2.8-0.8-3.8-4.8-3.8c-2.4,0-4.7,0.3-7,0.8l-0.8-4.8c2.8-0.8,5.7-1.2,8.6-1.2c7.9,0,10.2,2.8,10.2,9.1L118.6,203.5z M112.3,194
		h-4.6c-2.1,0-2.6,0.6-2.6,2.5s0.6,2.5,2.5,2.5c1.7,0,3.3-0.5,4.8-1.3V194z"/>
	<path class="st0" d="M122.5,186.7c0-5.6,2.5-8.9,8.3-8.9c2.3,0,4.5,0.3,6.7,0.7V168l6.3-0.9v36.3h-5l-0.6-2.1
		c-2.3,1.7-5.1,2.6-8,2.6c-5.1,0-7.7-3-7.7-8.7L122.5,186.7z M137.5,183.8c-1.8-0.4-3.7-0.6-5.6-0.7c-2.3,0-3.1,1.1-3.1,3.4v8.9
		c0,2.1,0.8,3.2,3.1,3.2c2.1-0.1,4.1-0.9,5.6-2.3L137.5,183.8z"/>
	<path class="st0" d="M6.7,160.6v-4.8H2.3v4.8H0.1v-11.6h2.3v4.9h4.4v-4.9H9v11.6H6.7z M17.3,160.6h-1.8l-0.2-0.6
		c-0.8,0.5-1.7,0.7-2.6,0.7c-1.6,0-2.3-1.1-2.3-2.5c0-1.7,0.8-2.4,2.5-2.4h2.1v-0.9c0-0.9-0.3-1.3-1.7-1.3c-0.8,0-1.6,0.1-2.4,0.3
		l-0.3-1.6c1-0.3,2-0.4,3-0.4c2.7,0,3.5,0.9,3.5,3L17.3,160.6z M15.1,157.5h-1.6c-0.7,0-0.9,0.2-0.9,0.8s0.2,0.8,0.9,0.8
		c0.6,0,1.1-0.2,1.7-0.4V157.5z M21.8,160.9c-1,0-2-0.2-3-0.5l0.3-1.6c0.8,0.2,1.7,0.3,2.6,0.4c1,0,1.1-0.2,1.1-0.8
		s-0.1-0.8-1.5-1.1c-2.1-0.5-2.4-1-2.4-2.6s0.8-2.4,3.2-2.4c0.9,0,1.8,0.1,2.6,0.3l-0.2,1.7c-0.8-0.1-1.6-0.2-2.4-0.2
		c-1,0-1.1,0.2-1.1,0.7s0.1,0.7,1.2,1c2.4,0.6,2.7,0.9,2.7,2.6S24.4,160.8,21.8,160.9L21.8,160.9z M31.8,160.7v-5.8
		c0-0.4-0.2-0.7-0.7-0.7c-0.8,0.1-1.6,0.3-2.3,0.7v5.8h-2.2v-11.8l2.2,0.3v3.7c1-0.5,2.1-0.8,3.2-0.8c1.5,0,2,1,2,2.5v6.1
		L31.8,160.7z M35.8,151.1v-2H38v2H35.8z M35.8,160.7v-8.4H38v8.4H35.8z M39.8,152.4c0-2.1,1.3-3.3,4.2-3.3c1.1,0,2.2,0.1,3.2,0.4
		l-0.2,1.9c-1-0.2-1.9-0.3-2.9-0.3c-1.6,0-2.1,0.5-2.1,1.7v4.4c0,1.2,0.5,1.7,2.1,1.7c1,0,1.9-0.1,2.9-0.3l0.2,1.9
		c-1.1,0.3-2.1,0.4-3.2,0.4c-3,0-4.2-1.2-4.2-3.3V152.4z M52.1,160.9c-3,0-3.8-1.6-3.8-3.3v-2.1c0-1.7,0.8-3.3,3.8-3.3
		s3.8,1.6,3.8,3.3v2.1C55.8,159.2,55,160.8,52.1,160.9L52.1,160.9z M52.1,153.9c-1.2,0-1.6,0.5-1.6,1.4v2.2c0,0.9,0.4,1.4,1.6,1.4
		s1.6-0.5,1.6-1.4v-2.2C53.7,154.4,53.2,153.9,52.1,153.9L52.1,153.9z M62,154.1c-0.8,0.3-1.6,0.8-2.3,1.2v5.4h-2.2v-8.4h1.8
		l0.1,0.9c0.7-0.5,1.5-0.8,2.3-1.1L62,154.1z M70.7,157.9c0,1.9-0.9,3-2.9,3c-0.8,0-1.6-0.1-2.3-0.2v3.4l-2.2,0.3v-12h1.7l0.2,0.7
		c0.8-0.6,1.8-0.9,2.8-0.9c1.8,0,2.7,1,2.7,2.9L70.7,157.9z M65.5,158.9c0.6,0.1,1.3,0.2,1.9,0.2c0.8,0,1.1-0.4,1.1-1.1V155
		c0-0.7-0.3-1.1-1.1-1.1c-0.7,0-1.4,0.3-2,0.8L65.5,158.9z"/>
	<polygon class="st1" points="98.5,52.1 98.5,74.5 82.9,83.6 71.9,76.8 71.9,135.4 72.2,135.5 131.2,101.6 131.2,33.9 130.1,33.9 	
		"/>
	<polygon class="st0" points="71.4,0 12.7,34 52.3,57.2 60.3,52.4 79.8,63.2 79.8,40.6 98.5,29.4 98.5,52.1 131.2,33.9 131.2,33.9 	
		"/>
	<polygon class="st0" points="64,72.3 64,94.9 46.2,106.1 46.2,61 53,56.8 13,34 12.7,34 12.7,101.6 71.9,135.4 71.9,76.8 	"/>
</g>
</svg>
